HIERARCHY
ROOT Pelvis
{
	OFFSET 0.000000 0.000000 0.000000
	CHANNELS 6 Xposition Yposition Zposition Xrotation Yrotation Zrotation
	JOINT LeftUpLeg_virtual
	{
		OFFSET 0.000000 0.000000 0.000000
		CHANNELS 3 Xrotation Yrotation Zrotation
		JOINT LeftUpLeg
		{
			OFFSET 18.735201 -5.666702 -4.541200
			CHANNELS 3 Xrotation Yrotation Zrotation
			JOINT LeftLeg
			{
				OFFSET -0.021200 -31.938179 0.493100
				CHANNELS 3 Xrotation Yrotation Zrotation
				JOINT LeftFoot
				{
					OFFSET 0.021200 -31.938179 -4.336299
					CHANNELS 3 Xrotation Yrotation Zrotation
					JOINT LeftToeBase
					{
						OFFSET 0.943001 -26.722000 15.023500
						CHANNELS 3 Xrotation Yrotation Zrotation
						End Site
						{
							OFFSET 0 0 0
						}
					}
				}
			}
		}
	}
	JOINT RightUpLeg_virtual
	{
		OFFSET 0.000000 0.000000 0.000000
		CHANNELS 3 Xrotation Yrotation Zrotation
		JOINT RightUpLeg
		{
			OFFSET -18.735201 -5.666702 -4.541200
			CHANNELS 3 Xrotation Yrotation Zrotation
			JOINT RightLeg
			{
				OFFSET 0.018946 -31.938133 0.493100
				CHANNELS 3 Xrotation Yrotation Zrotation
				JOINT RightFoot
				{
					OFFSET -0.018946 -31.938126 -4.336299
					CHANNELS 3 Xrotation Yrotation Zrotation
					JOINT RightToeBase
					{
						OFFSET -0.943001 -26.722004 15.023500
						CHANNELS 3 Xrotation Yrotation Zrotation
						End Site
						{
							OFFSET 0 0 0
						}
					}
				}
			}
		}
	}
	JOINT Hips_virtual
	{
		OFFSET 0.000000 0.000000 0.000000
		CHANNELS 3 Xrotation Yrotation Zrotation
		JOINT Hips
		{
			OFFSET -0.000000 -0.000000 -0.000000
			CHANNELS 3 Xrotation Yrotation Zrotation
			JOINT Spine
			{
				OFFSET 0.000000 10.199997 -0.299500
				CHANNELS 3 Xrotation Yrotation Zrotation
				JOINT Spine1
				{
					OFFSET 0.000000 11.900002 -1.516600
					CHANNELS 3 Xrotation Yrotation Zrotation
					JOINT Spine2
					{
						OFFSET 0.000000 13.600006 -2.842500
						CHANNELS 3 Xrotation Yrotation Zrotation
						JOINT Neck_virtual
						{
							OFFSET 0.000000 0.000000 0.000000
							CHANNELS 3 Xrotation Yrotation Zrotation
							JOINT Neck
							{
								OFFSET 0.000000 9.624100 -2.890100
								CHANNELS 3 Xrotation Yrotation Zrotation
								JOINT Head
								{
									OFFSET 0.000000 14.068802 -1.351900
									CHANNELS 3 Xrotation Yrotation Zrotation
									End Site
									{
										OFFSET 0 0 0
									}
								}
							}
						}
						JOINT LeftShoulder_virtual
						{
							OFFSET 0.000000 0.000000 0.000000
							CHANNELS 3 Xrotation Yrotation Zrotation
							JOINT LeftShoulder
							{
								OFFSET 15.263000 10.923401 -0.547700
								CHANNELS 3 Xrotation Yrotation Zrotation
								JOINT LeftArm
								{
									OFFSET 25.438599 -2.830597 -13.032500
									CHANNELS 3 Xrotation Yrotation Zrotation
									JOINT LeftForeArm
									{
										OFFSET 29.960503 0.000000 0.000000
										CHANNELS 3 Xrotation Yrotation Zrotation
										JOINT LeftHand
										{
											OFFSET 27.849251 0.000000 0.000000
											CHANNELS 3 Xrotation Yrotation Zrotation
											End Site
											{
												OFFSET 0 0 0
											}
										}
									}
								}
							}
						}
						JOINT RightShoulder_virtual
						{
							OFFSET 0.000000 0.000000 0.000000
							CHANNELS 3 Xrotation Yrotation Zrotation
							JOINT RightShoulder
							{
								OFFSET -15.263000 10.923401 -0.547700
								CHANNELS 3 Xrotation Yrotation Zrotation
								JOINT RightArm
								{
									OFFSET -25.438599 -2.830597 -13.032500
									CHANNELS 3 Xrotation Yrotation Zrotation
									JOINT RightForeArm
									{
										OFFSET -29.960503 0.000000 0.000000
										CHANNELS 3 Xrotation Yrotation Zrotation
										JOINT RightHand
										{
											OFFSET -27.849251 0.000000 0.000000
											CHANNELS 3 Xrotation Yrotation Zrotation
											End Site
											{
												OFFSET 0 0 0
											}
										}
									}
								}
							}
						}
					}
				}
			}
		}
	}
}
MOTION
Frames: 6
Frame Time: 0.03333333
7.138066 75.296753 -4.608616 0.000000 0.000000 0.000000 48.573461 -81.968062 49.370895 -33.616081 -16.454716 28.882336 55.738681 -9.370208 10.311079 -25.437156 0.959614 -28.757449 0.000000 0.000000 0.000000 48.573461 -81.968062 49.370895 -21.708797 11.926113 -33.192172 52.328364 6.409107 -10.112026 -37.754841 -1.597860 29.901305 0.000000 0.000000 0.000000 48.573461 -81.968062 49.370895 -0.000001 0.000000 0.000000 1.249160 4.544311 3.050677 1.621327 3.844478 0.818265 0.000000 0.000000 0.000000 1.538160 3.914621 0.837151 -1.647672 3.686702 -0.521352 0.000000 0.000000 0.000000 1.538160 3.914621 0.837151 0.787336 9.731775 -8.832566 -10.163133 11.269045 -65.934425 -179.999937 -63.581842 -179.999923 0.000000 0.000000 0.000000 1.538160 3.914621 0.837151 0.469773 13.491804 10.835795 -9.891341 36.257205 44.312413 -179.989978 78.869813 179.990101 0.000000 0.000000 0.000000 
6.712340 75.316399 -4.434692 0.000000 0.000000 0.000000 33.861581 -81.391703 34.309218 -32.144738 -16.471828 29.227564 54.872169 -9.205398 10.288165 -27.622168 0.310713 -28.261878 0.000000 0.000000 0.000000 33.861581 -81.391703 34.309218 -19.986660 11.254915 -33.435149 52.817013 6.747199 -10.108603 -36.137312 -1.664459 31.132159 0.000000 0.000000 0.000000 33.861581 -81.391703 34.309218 0.000000 0.000001 0.000000 1.314859 4.150605 3.450707 1.674578 3.524484 1.048239 0.000000 0.000000 0.000000 1.609791 3.584459 1.064620 -1.197268 3.583776 -0.538567 0.000000 0.000000 0.000000 1.609791 3.584459 1.064620 0.654794 7.533283 -7.402836 -5.403853 12.550870 -68.677743 -179.999991 -61.750279 179.999991 0.000000 0.000000 0.000000 1.609791 3.584459 1.064620 0.654562 13.133329 8.324375 -11.309125 35.091360 48.626856 -179.998830 78.103814 179.998830 0.000000 0.000000 0.000000 
5.552202 78.121506 -3.825497 0.000000 0.000000 0.000000 16.045680 -77.334967 16.394976 -34.461221 -14.507173 27.856348 48.858245 -9.147212 10.648336 -20.176509 -8.435892 -29.275994 0.000000 0.000000 0.000000 16.045680 -77.334967 16.394976 -16.899526 7.670147 -32.964402 49.394883 7.846150 -10.580113 -25.818597 -1.348359 32.603280 0.000000 0.000000 0.000000 16.045680 -77.334967 16.394976 0.000000 0.000000 0.000000 0.982265 4.138008 3.881723 1.364926 3.425545 0.933034 0.000000 0.000000 0.000000 1.299352 3.485002 0.928855 -0.859125 3.243861 -0.586672 0.000000 0.000000 0.000000 1.299352 3.485002 0.928855 0.623447 7.184073 -6.717688 -3.255302 6.222733 -65.186280 -179.999964 -62.493635 -179.999978 0.000000 0.000000 0.000000 1.299352 3.485002 0.928855 0.732048 11.989980 7.098539 -9.801466 33.018910 50.192707 179.999950 75.039962 -179.999950 0.000000 0.000000 0.000000 
4.388904 81.857117 -3.402107 0.000000 0.000000 0.000000 8.595796 -70.984735 8.917116 -39.727406 -10.848023 23.979315 39.924952 -9.110243 12.174285 -4.061639 -21.886778 -27.705682 0.000000 0.000000 0.000000 8.595796 -70.984735 8.917116 -16.753788 4.731393 -31.919895 46.296289 9.211010 -9.629348 -6.943744 0.730231 32.727528 0.000000 0.000000 0.000000 8.595796 -70.984735 8.917116 0.000000 0.000000 0.000000 0.387874 4.497690 3.953266 0.852122 3.485844 0.754328 0.000000 0.000000 0.000000 0.783426 3.538964 0.730215 -0.499737 2.816618 -0.715281 0.000000 0.000000 0.000000 0.783426 3.538964 0.730215 0.631627 7.428714 -6.398274 -3.535908 -2.425775 -59.961500 179.999964 -64.101052 179.999964 0.000000 0.000000 0.000000 0.783426 3.538964 0.730215 0.774068 11.005989 6.249562 -7.836070 30.143571 49.304612 179.999950 71.600176 -179.999950 0.000000 0.000000 0.000000 
3.616293 86.014862 -3.132103 0.000000 0.000000 0.000000 5.199577 -64.041397 5.811712 -39.669537 -5.695448 19.906214 24.266183 -10.273159 10.619874 21.213767 -27.549870 -18.456001 0.000000 0.000000 0.000000 5.199577 -64.041397 5.811712 -18.279381 2.317098 -29.457213 40.172311 11.260226 -6.495112 18.125548 5.669558 25.112960 0.000000 0.000000 0.000000 5.199577 -64.041397 5.811712 0.000000 0.000000 0.000000 -0.051679 4.574078 3.480836 0.447786 3.414564 0.672032 0.000000 0.000000 0.000000 0.384779 3.459937 0.635139 -0.052824 2.409019 -0.836580 0.000000 0.000000 0.000000 0.384779 3.459937 0.635139 0.699285 5.760002 -6.278174 -4.279828 -7.456914 -56.699108 179.999950 -65.285605 179.999964 0.000000 0.000000 0.000000 0.384779 3.459937 0.635139 0.767345 10.535644 6.363163 -5.778219 26.229117 45.684782 -179.999882 68.887867 179.999868 0.000000 0.000000 0.000000 
3.596063 91.526955 -2.747036 0.000000 0.000000 0.000000 3.697668 -58.208143 4.116205 -35.614003 -2.112298 20.328473 15.950915 -10.912732 6.056327 26.571965 -16.404045 -17.080611 0.000000 0.000000 0.000000 3.697668 -58.208143 4.116205 -20.505814 1.676423 -25.565765 41.053129 11.277243 -5.121802 23.501971 3.698666 16.920754 0.000000 0.000000 0.000000 3.697668 -58.208143 4.116205 0.000000 0.000003 0.000000 -0.240650 4.066049 3.656300 0.247770 3.118942 0.650667 0.000000 0.000000 0.000000 0.190741 3.164394 0.607546 0.138392 2.139057 -0.908224 0.000000 0.000000 0.000000 0.190741 3.164394 0.607546 0.784877 4.211127 -6.789353 -3.975724 -9.440258 -55.110857 179.999909 -65.749894 179.999923 0.000000 0.000000 0.000000 0.190741 3.164394 0.607546 0.701145 9.829418 7.579468 -2.955946 23.088920 39.872339 -179.999991 67.471764 179.999991 0.000000 0.000000 0.000000 
